<svg xmlns="http://www.w3.org/2000/svg" width="168" height="60.823" viewBox="0 0 168 60.823">
  <g transform="translate(-30 998.265)">
    <path d="M1081.785,43.037a2.705,2.705,0,0,0-2.347-1.356H1016.5a2.706,2.706,0,0,0-2.34,4.067l31.467,54.14a2.707,2.707,0,0,0,4.681,0l31.467-54.14A2.707,2.707,0,0,0,1081.785,43.037Z" transform="translate(-983.162 -1039.312)" fill="#ffef00"/>
    <g transform="translate(30 -998.265)">
      <path d="M1048.143,102.041a3.345,3.345,0,0,1-2.888-1.662l-31.468-54.142a3.34,3.34,0,0,1,5.776-3.358l28.581,49.173,28.579-49.172a3.34,3.34,0,0,1,5.776,3.356l-31.466,54.142A3.345,3.345,0,0,1,1048.143,102.041Z" transform="translate(-1013.333 -41.218)"/>
    </g>
    <path d="M1048.794,59.567c.009-.029.019-.055.027-.084a1.83,1.83,0,0,0,.06-.427,1.743,1.743,0,0,0-.055-.441c-.007-.03-.018-.059-.026-.089a1.862,1.862,0,0,0-.134-.333c-.01-.018-.012-.037-.022-.055s-.017-.018-.023-.029a1.8,1.8,0,0,0-.6-.612c-.031-.021-.065-.037-.1-.055a1.839,1.839,0,0,0-.3-.129c-.035-.012-.07-.025-.107-.034a1.8,1.8,0,0,0-.431-.063l-9.2-.1,4.644-7.944a1.819,1.819,0,0,0-3.141-1.836l-6.221,10.646c-.01.018-.014.037-.023.055a1.775,1.775,0,0,0-.139.33c-.008.029-.019.056-.028.085a1.686,1.686,0,0,0-.007.867c.008.032.019.062.029.093a1.688,1.688,0,0,0,.132.326.562.562,0,0,0,.023.059c.007.011.016.021.023.032a1.9,1.9,0,0,0,.265.349h0a1.807,1.807,0,0,0,.333.259c.031.021.064.037.1.055a1.775,1.775,0,0,0,.3.129c.035.012.071.026.107.036a1.8,1.8,0,0,0,.431.062l9.2.1-4.644,7.947a1.819,1.819,0,1,0,3.141,1.836l6.22-10.648c.01-.018.014-.037.024-.055A1.768,1.768,0,0,0,1048.794,59.567Z" transform="translate(-976.089 -1037.555)"/>
    <path d="M29.941-166.714a1.06,1.06,0,0,1,.818.387,1.434,1.434,0,0,1,.344.99q0,1.076-1.506,1.98A13.028,13.028,0,0,1,26.325-162a13.194,13.194,0,0,1-3.357.452,10.25,10.25,0,0,1-7.683-2.884q-2.819-2.884-2.819-7.963a12.5,12.5,0,0,1,1.248-5.7,9.313,9.313,0,0,1,3.508-3.852,9.684,9.684,0,0,1,5.143-1.377,8.323,8.323,0,0,1,6.5,2.669,10.384,10.384,0,0,1,2.41,7.231,1.854,1.854,0,0,1-.344,1.248,1.429,1.429,0,0,1-1.119.387H15.952q.387,7.4,7.016,7.4a8.223,8.223,0,0,0,2.884-.452,18.742,18.742,0,0,0,2.582-1.227A4.094,4.094,0,0,1,29.941-166.714Zm-7.532-13.9A5.84,5.84,0,0,0,18-178.9a7.867,7.867,0,0,0-1.958,4.864H28.219a7.456,7.456,0,0,0-1.593-4.885A5.341,5.341,0,0,0,22.409-180.617ZM46.6-183.242q1.808-.129,1.808,1.463a1.53,1.53,0,0,1-.387,1.1,2.058,2.058,0,0,1-1.334.495l-1.291.129a5.8,5.8,0,0,0-4.283,2.044,6.607,6.607,0,0,0-1.4,4.2v10.459a1.658,1.658,0,0,1-.473,1.291,1.784,1.784,0,0,1-1.248.43,1.81,1.81,0,0,1-1.27-.452,1.633,1.633,0,0,1-.495-1.27v-18.163a1.6,1.6,0,0,1,.517-1.27,1.83,1.83,0,0,1,1.248-.452,1.619,1.619,0,0,1,1.162.452,1.615,1.615,0,0,1,.473,1.227v2.41a6.535,6.535,0,0,1,2.561-2.884A8.666,8.666,0,0,1,46-183.2Zm6.413,21.607a1.81,1.81,0,0,1-1.27-.452,1.633,1.633,0,0,1-.495-1.27v-18.163a1.632,1.632,0,0,1,.495-1.27,1.81,1.81,0,0,1,1.27-.452,1.733,1.733,0,0,1,1.248.452,1.672,1.672,0,0,1,.473,1.27v18.163a1.658,1.658,0,0,1-.473,1.291A1.784,1.784,0,0,1,53.011-161.635Zm0-26.126a2.361,2.361,0,0,1-1.679-.6,2.076,2.076,0,0,1-.646-1.593,2.024,2.024,0,0,1,.646-1.549,2.362,2.362,0,0,1,1.679-.6,2.362,2.362,0,0,1,1.679.6,2.024,2.024,0,0,1,.646,1.549,2.076,2.076,0,0,1-.646,1.593A2.361,2.361,0,0,1,53.011-187.762Zm23.156,5.6a1.573,1.573,0,0,1,1.506-1.033,1.768,1.768,0,0,1,1.162.43,1.344,1.344,0,0,1,.516,1.076,1.363,1.363,0,0,1-.172.689l-8.393,18.077a2.012,2.012,0,0,1-.775.882,2.072,2.072,0,0,1-1.119.323,2,2,0,0,1-1.076-.323,2.31,2.31,0,0,1-.818-.882L58.649-181a1.28,1.28,0,0,1-.172-.646,1.408,1.408,0,0,1,.581-1.119,1.967,1.967,0,0,1,1.27-.473,1.553,1.553,0,0,1,.839.258,1.646,1.646,0,0,1,.624.732l7.188,16.14Zm15.28,20.617a10.091,10.091,0,0,1-5.23-1.334,8.892,8.892,0,0,1-3.486-3.809,12.783,12.783,0,0,1-1.227-5.746,12.783,12.783,0,0,1,1.227-5.746,8.892,8.892,0,0,1,3.486-3.809,10.091,10.091,0,0,1,5.23-1.334,10.207,10.207,0,0,1,5.251,1.334,8.852,8.852,0,0,1,3.508,3.809,12.783,12.783,0,0,1,1.227,5.746,12.783,12.783,0,0,1-1.227,5.746,8.851,8.851,0,0,1-3.508,3.809A10.207,10.207,0,0,1,91.447-161.549Zm0-2.884a5.768,5.768,0,0,0,4.756-2.044,9.282,9.282,0,0,0,1.657-5.961,9.228,9.228,0,0,0-1.679-5.918,5.729,5.729,0,0,0-4.735-2.088,5.729,5.729,0,0,0-4.735,2.088,9.228,9.228,0,0,0-1.679,5.918,9.3,9.3,0,0,0,1.657,5.94A5.742,5.742,0,0,0,91.447-164.433Zm16.786,2.8a1.81,1.81,0,0,1-1.27-.452,1.633,1.633,0,0,1-.495-1.27v-27.331a1.632,1.632,0,0,1,.495-1.27,1.81,1.81,0,0,1,1.27-.452,1.751,1.751,0,0,1,1.227.452,1.632,1.632,0,0,1,.495,1.27v27.331a1.633,1.633,0,0,1-.495,1.27A1.751,1.751,0,0,1,108.233-161.635Zm17.733-2.755q1.506.129,1.506,1.377a1.239,1.239,0,0,1-.538,1.1,2.52,2.52,0,0,1-1.614.28l-1.162-.086a7.3,7.3,0,0,1-5.079-2.066q-1.636-1.808-1.636-5.466v-10.8H114.56a1.651,1.651,0,0,1-1.141-.366,1.236,1.236,0,0,1-.409-.968,1.356,1.356,0,0,1,.409-1.033,1.593,1.593,0,0,1,1.141-.387h2.884v-4.864a1.672,1.672,0,0,1,.473-1.27,1.793,1.793,0,0,1,1.291-.452,1.733,1.733,0,0,1,1.248.452,1.672,1.672,0,0,1,.473,1.27v4.864h4.778a1.531,1.531,0,0,1,1.1.387,1.356,1.356,0,0,1,.409,1.033,1.236,1.236,0,0,1-.409.968,1.585,1.585,0,0,1-1.1.366H120.93v10.976a4.975,4.975,0,0,0,.968,3.422,4.15,4.15,0,0,0,2.905,1.184Z" transform="translate(70.528 -777.883)"/>
  </g>
</svg>
